<svg width="220" height="224" viewBox="0 0 220 224" fill="none" xmlns="http://www.w3.org/2000/svg">
<path d="M110 0.885414C112.072 0.885414 114.059 1.72223 115.524 3.21178C116.989 4.70133 117.812 6.72159 117.812 8.82812V24.7135C117.812 26.8201 116.989 28.8403 115.524 30.3299C114.059 31.8194 112.072 32.6562 110 32.6562C107.928 32.6562 105.941 31.8194 104.476 30.3299C103.011 28.8403 102.188 26.8201 102.188 24.7135V8.82812C102.188 6.72159 103.011 4.70133 104.476 3.21178C105.941 1.72223 107.928 0.885414 110 0.885414ZM110 159.74C122.432 159.74 134.355 154.719 143.146 145.781C151.936 136.844 156.875 124.723 156.875 112.083C156.875 99.4441 151.936 87.3226 143.146 78.3853C134.355 69.448 122.432 64.4271 110 64.4271C97.568 64.4271 85.6451 69.448 76.8544 78.3853C68.0636 87.3226 63.125 99.4441 63.125 112.083C63.125 124.723 68.0636 136.844 76.8544 145.781C85.6451 154.719 97.568 159.74 110 159.74ZM211.562 120.026C213.635 120.026 215.622 119.189 217.087 117.7C218.552 116.21 219.375 114.19 219.375 112.083C219.375 109.977 218.552 107.957 217.087 106.467C215.622 104.977 213.635 104.141 211.562 104.141H195.938C193.865 104.141 191.878 104.977 190.413 106.467C188.948 107.957 188.125 109.977 188.125 112.083C188.125 114.19 188.948 116.21 190.413 117.7C191.878 119.189 193.865 120.026 195.938 120.026H211.562ZM110 191.51C112.072 191.51 114.059 192.347 115.524 193.837C116.989 195.326 117.812 197.347 117.812 199.453V215.339C117.812 217.445 116.989 219.465 115.524 220.955C114.059 222.444 112.072 223.281 110 223.281C107.928 223.281 105.941 222.444 104.476 220.955C103.011 219.465 102.188 217.445 102.188 215.339V199.453C102.188 197.347 103.011 195.326 104.476 193.837C105.941 192.347 107.928 191.51 110 191.51ZM24.0625 120.026C26.1345 120.026 28.1216 119.189 29.5868 117.7C31.0519 116.21 31.875 114.19 31.875 112.083C31.875 109.977 31.0519 107.957 29.5868 106.467C28.1216 104.977 26.1345 104.141 24.0625 104.141H8.4375C6.3655 104.141 4.37836 104.977 2.91323 106.467C1.4481 107.957 0.625 109.977 0.625 112.083C0.625 114.19 1.4481 116.21 2.91323 117.7C4.37836 119.189 6.3655 120.026 8.4375 120.026H24.0625ZM34.1562 34.9755C34.882 34.2358 35.7441 33.649 36.6932 33.2486C37.6424 32.8482 38.6599 32.642 39.6875 32.642C40.7151 32.642 41.7326 32.8482 42.6818 33.2486C43.6309 33.649 44.493 34.2358 45.2188 34.9755L60.8438 50.8609C61.5701 51.5994 62.1463 52.4761 62.5394 53.441C62.9325 54.4059 63.1349 55.44 63.1349 56.4844C63.1349 57.5287 62.9325 58.5629 62.5394 59.5278C62.1463 60.4926 61.5701 61.3693 60.8438 62.1078C60.1174 62.8463 59.255 63.4321 58.306 63.8318C57.3569 64.2314 56.3397 64.4371 55.3125 64.4371C54.2853 64.4371 53.2681 64.2314 52.319 63.8318C51.37 63.4321 50.5076 62.8463 49.7812 62.1078L34.1562 46.2224C33.4287 45.4846 32.8515 44.6081 32.4576 43.6431C32.0638 42.6782 31.861 41.6437 31.861 40.599C31.861 39.5542 32.0638 38.5197 32.4576 37.5548C32.8515 36.5898 33.4287 35.7133 34.1562 34.9755ZM45.2188 189.191C44.4934 189.93 43.6321 190.516 42.684 190.916C41.7359 191.316 40.7195 191.522 39.693 191.523C38.6665 191.524 37.6499 191.319 36.7012 190.92C35.7526 190.521 34.8904 189.937 34.1641 189.199C33.4377 188.462 32.8613 187.586 32.4678 186.622C32.0743 185.658 31.8714 184.625 31.8707 183.581C31.8699 182.538 32.0714 181.504 32.4636 180.54C32.8557 179.575 33.4309 178.699 34.1562 177.96L49.7812 162.075C50.5066 161.336 51.3679 160.75 52.316 160.35C53.2641 159.95 54.2805 159.744 55.307 159.743C56.3335 159.742 57.3501 159.947 58.2988 160.346C59.2474 160.745 60.1096 161.329 60.8359 162.067C61.5623 162.804 62.1387 163.68 62.5322 164.644C62.9257 165.608 63.1286 166.641 63.1293 167.685C63.1301 168.728 62.9286 169.762 62.5364 170.726C62.1443 171.691 61.5691 172.567 60.8438 173.306L45.2188 189.191ZM185.844 34.9755C185.118 34.2358 184.256 33.649 183.307 33.2486C182.358 32.8482 181.34 32.642 180.312 32.642C179.285 32.642 178.267 32.8482 177.318 33.2486C176.369 33.649 175.507 34.2358 174.781 34.9755L159.156 50.8609C157.689 52.3524 156.865 54.3752 156.865 56.4844C156.865 58.5936 157.689 60.6164 159.156 62.1078C160.623 63.5992 162.613 64.4371 164.688 64.4371C166.762 64.4371 168.752 63.5992 170.219 62.1078L185.844 46.2224C186.571 45.4846 187.149 44.6081 187.542 43.6431C187.936 42.6782 188.139 41.6437 188.139 40.599C188.139 39.5542 187.936 38.5197 187.542 37.5548C187.149 36.5898 186.571 35.7133 185.844 34.9755ZM174.781 189.191C176.246 190.683 178.234 191.521 180.307 191.523C182.38 191.524 184.369 190.688 185.836 189.199C187.303 187.71 188.128 185.689 188.129 183.581C188.131 181.474 187.309 179.452 185.844 177.96L170.219 162.075C168.754 160.583 166.766 159.745 164.693 159.743C162.62 159.742 160.631 160.577 159.164 162.067C157.697 163.556 156.872 165.577 156.871 167.685C156.869 169.792 157.691 171.814 159.156 173.306L174.781 189.191Z" fill="white"/>
</svg>
