<svg width="220" height="166" viewBox="0 0 220 166" fill="none" xmlns="http://www.w3.org/2000/svg">
<path d="M121.01 33.0974C155.862 33.0974 175.634 56.1632 178.51 84.0248H179.39C201.818 84.0248 220 102.163 220 124.53C220 146.903 201.818 165.036 179.39 165.036H62.6309C40.203 165.036 22.0209 146.903 22.0209 124.53C22.0209 102.163 40.2085 84.0248 62.6364 84.0248H63.5163C66.4092 55.9817 86.1587 33.0974 121.01 33.0974ZM87.9956 2.98155e-06C96.4538 -0.0028646 104.784 2.06279 112.261 6.01696C119.738 9.97113 126.135 15.6938 130.893 22.6864C127.609 22.2902 124.303 22.0936 120.994 22.0979C87.5666 22.0979 63.3788 41.006 55.2172 69.478L54.7773 71.0675L54.1448 73.6798L51.8679 74.1033C43.2104 75.9338 35.1696 79.9612 28.5189 85.7981C21.8681 91.635 16.8311 99.085 13.8923 107.432C7.96524 102.807 3.62992 96.447 1.49138 89.2396C-0.647168 82.0323 -0.482236 74.3371 1.96316 67.2281C4.40855 60.119 9.01238 53.9507 15.1322 49.5841C21.2519 45.2175 28.5823 42.8704 36.1002 42.8704H36.8811C39.0069 30.8581 45.2947 19.978 54.6414 12.1388C63.9881 4.29961 75.7967 0.00202861 87.9956 2.98155e-06Z" fill="white"/>
</svg>
