<svg width="184" height="184" viewBox="0 0 184 184" fill="none" xmlns="http://www.w3.org/2000/svg">
<path d="M101.167 165.333C103.598 165.333 105.929 166.299 107.648 168.018C109.368 169.737 110.333 172.069 110.333 174.5C110.333 176.931 109.368 179.263 107.648 180.982C105.929 182.701 103.598 183.667 101.167 183.667C98.7355 183.667 96.4039 182.701 94.6849 180.982C92.9658 179.263 92 176.931 92 174.5C92 172.069 92.9658 169.737 94.6849 168.018C96.4039 166.299 98.7355 165.333 101.167 165.333ZM69.0833 156.167C71.5145 156.167 73.8461 157.132 75.5651 158.852C77.2842 160.571 78.25 162.902 78.25 165.333C78.25 167.764 77.2842 170.096 75.5651 171.815C73.8461 173.534 71.5145 174.5 69.0833 174.5C66.6522 174.5 64.3206 173.534 62.6015 171.815C60.8824 170.096 59.9167 167.764 59.9167 165.333C59.9167 162.902 60.8824 160.571 62.6015 158.852C64.3206 157.132 66.6522 156.167 69.0833 156.167ZM133.25 156.167C135.681 156.167 138.013 157.132 139.732 158.852C141.451 160.571 142.417 162.902 142.417 165.333C142.417 167.764 141.451 170.096 139.732 171.815C138.013 173.534 135.681 174.5 133.25 174.5C130.819 174.5 128.487 173.534 126.768 171.815C125.049 170.096 124.083 167.764 124.083 165.333C124.083 162.902 125.049 160.571 126.768 158.852C128.487 157.132 130.819 156.167 133.25 156.167ZM101.185 37.0825C130.225 37.0825 146.707 56.305 149.099 79.5242H149.833C154.272 79.5181 158.668 80.3867 162.772 82.0802C166.875 83.7737 170.605 86.2589 173.748 89.394C176.89 92.5292 179.385 96.2527 181.088 100.352C182.792 104.451 183.671 108.846 183.676 113.285C183.67 117.723 182.79 122.117 181.086 126.215C179.382 130.313 176.887 134.036 173.744 137.17C170.602 140.304 166.873 142.789 162.77 144.482C158.667 146.174 154.271 147.043 149.833 147.037H52.5283C48.09 147.043 43.6939 146.174 39.5911 144.482C35.4883 142.789 31.7591 140.304 28.6165 137.17C25.4738 134.036 22.9793 130.313 21.2752 126.215C19.5712 122.117 18.691 117.723 18.685 113.285C18.6898 108.846 19.5691 104.451 21.2726 100.352C22.9761 96.2527 25.4705 92.5292 28.6132 89.394C31.756 86.2589 35.4856 83.7737 39.589 82.0802C43.6924 80.3867 48.0892 79.5181 52.5283 79.5242H53.2617C55.6725 56.1492 72.145 37.0825 101.185 37.0825ZM22.0308 75.17C22.6683 76.7052 22.7279 78.4193 22.1987 79.9951C21.6695 81.5709 20.5874 82.9016 19.1525 83.7408L18.3183 84.1533L9.82084 87.6733C8.21341 88.3285 6.41765 88.3514 4.79405 87.7374C3.17046 87.1234 1.83921 85.9179 1.06758 84.363C0.29594 82.8082 0.141029 81.019 0.633941 79.3546C1.12685 77.6902 2.2311 76.2739 3.725 75.39L4.55917 74.9683L13.0567 71.4483C13.8909 71.1028 14.785 70.9249 15.688 70.9249C16.5909 70.9249 17.485 71.1028 18.3192 71.4484C19.1534 71.794 19.9114 72.3005 20.5498 72.9391C21.1882 73.5776 21.6854 74.3357 22.0308 75.17ZM81.5042 30.8675L79.9367 31.3992C63.5742 37.1742 51.8592 49.7783 46.7992 66.4433L46.1575 68.735L45.6167 70.9167L43.7283 71.2742C38.2441 72.4256 33.0416 74.6499 28.42 77.8192C24.2186 70.5979 22.6493 62.144 23.979 53.8959C25.3088 45.6479 29.4555 38.1155 35.7134 32.5805C41.9713 27.0455 49.9539 23.85 58.3025 23.5376C66.6512 23.2253 74.8502 25.8155 81.5042 30.8675ZM8.96834 31.1517L9.93084 31.4725L18.4192 34.9925C20.0111 35.6636 21.292 36.9094 22.0071 38.482C22.7221 40.0546 22.8189 41.8388 22.2781 43.4796C21.7374 45.1204 20.5987 46.4974 19.0887 47.3367C17.5788 48.176 15.8081 48.4161 14.1292 48.0092L13.1575 47.6975L4.66917 44.1775C3.07303 43.5084 1.78796 42.2619 1.07053 40.6869C0.353095 39.1119 0.256086 37.3243 0.798867 35.6809C1.34165 34.0375 2.48428 32.6593 3.99865 31.8214C5.51301 30.9835 7.28767 30.7385 8.96834 31.1517ZM43.9392 3.78916L44.3517 4.62333L47.8717 13.1117C48.5363 14.7205 48.566 16.5216 47.9546 18.1514C47.3432 19.7813 46.1363 21.1185 44.5775 21.8933C43.0186 22.668 41.2239 22.8226 39.5556 22.3259C37.8872 21.8291 36.4694 20.7179 35.5883 19.2167L35.1667 18.3733L31.6467 9.885C30.9915 8.27757 30.9686 6.48181 31.5826 4.85821C32.1966 3.23462 33.4021 1.90337 34.957 1.13174C36.5118 0.3601 38.301 0.205188 39.9654 0.6981C41.6298 1.19101 43.0552 2.29526 43.9392 3.78916ZM83.8325 0.864996C85.3561 1.49505 86.6026 2.65167 87.3447 4.124C88.0867 5.59633 88.2749 7.28631 87.875 8.88583L87.5542 9.84833L84.0433 18.3367C83.3821 19.9433 82.137 21.24 80.5586 21.9661C78.9801 22.6921 77.1853 22.7935 75.5351 22.25C73.8849 21.7066 72.5016 20.5584 71.6635 19.0365C70.8254 17.5146 70.5946 15.7318 71.0175 14.0467L71.3383 13.075L74.8492 4.58666C75.1946 3.75238 75.701 2.99431 76.3394 2.35575C76.9778 1.71719 77.7357 1.21064 78.5699 0.865044C79.4041 0.519445 80.2983 0.341561 81.2012 0.341553C82.1042 0.341544 82.9983 0.519413 83.8325 0.864996Z" fill="white"/>
</svg>
