<svg width="418" height="342" viewBox="0 0 418 342" fill="none" xmlns="http://www.w3.org/2000/svg">
<path d="M38.75 227.75H227.917C232.934 227.75 237.745 229.743 241.293 233.291C244.84 236.838 246.833 241.65 246.833 246.667C246.833 251.684 244.84 256.495 241.293 260.043C237.745 263.59 232.934 265.583 227.917 265.583H38.75C33.733 265.583 28.9215 263.59 25.3739 260.043C21.8263 256.495 19.8333 251.684 19.8333 246.667C19.8333 241.65 21.8263 236.838 25.3739 233.291C28.9215 229.743 33.733 227.75 38.75 227.75ZM284.667 227.75H379.25C384.267 227.75 389.079 229.743 392.626 233.291C396.174 236.838 398.167 241.65 398.167 246.667C398.167 251.684 396.174 256.495 392.626 260.043C389.079 263.59 384.267 265.583 379.25 265.583H284.667C279.65 265.583 274.838 263.59 271.291 260.043C267.743 256.495 265.75 251.684 265.75 246.667C265.75 241.65 267.743 236.838 271.291 233.291C274.838 229.743 279.65 227.75 284.667 227.75ZM0.916656 171C0.916656 145.915 10.8817 121.857 28.6195 104.119C46.3573 86.3817 70.4149 76.4167 95.5 76.4167C114.417 31.9625 157.925 0.75 209 0.75C273.884 0.75 327.04 51.0683 331.958 114.817L341.417 114.25C382.844 114.25 416.516 147.543 417.083 189.917H379.25C379.25 179.883 375.264 170.26 368.169 163.164C361.074 156.069 351.451 152.083 341.417 152.083H303.583V133.167C303.583 108.082 293.618 84.024 275.881 66.2861C258.143 48.5483 234.085 38.5833 209 38.5833C161.708 38.5833 122.929 73.0117 115.552 117.844C109.309 115.574 102.499 114.25 95.5 114.25C80.449 114.25 66.0144 120.229 55.3717 130.872C44.729 141.514 38.75 155.949 38.75 171C38.7404 177.442 39.8279 183.839 41.9658 189.917H2.80832L0.916656 171ZM38.75 303.417H76.5833C81.6003 303.417 86.4119 305.41 89.9594 308.957C93.507 312.505 95.5 317.316 95.5 322.333C95.5 327.35 93.507 332.162 89.9594 335.709C86.4119 339.257 81.6003 341.25 76.5833 341.25H38.75C33.733 341.25 28.9215 339.257 25.3739 335.709C21.8263 332.162 19.8333 327.35 19.8333 322.333C19.8333 317.316 21.8263 312.505 25.3739 308.957C28.9215 305.41 33.733 303.417 38.75 303.417ZM133.333 303.417H379.25C384.267 303.417 389.079 305.41 392.626 308.957C396.174 312.505 398.167 317.316 398.167 322.333C398.167 327.35 396.174 332.162 392.626 335.709C389.079 339.257 384.267 341.25 379.25 341.25H133.333C128.316 341.25 123.505 339.257 119.957 335.709C116.41 332.162 114.417 327.35 114.417 322.333C114.417 317.316 116.41 312.505 119.957 308.957C123.505 305.41 128.316 303.417 133.333 303.417Z" fill="white"/>
</svg>
