<svg width="288" height="293" viewBox="0 0 288 293" fill="none" xmlns="http://www.w3.org/2000/svg">
<path d="M58.5651 190.961H216.461C256.795 190.961 287.966 160.425 287.966 121.366C287.966 81.792 255.394 52.152 212.259 52.532C195.973 19.7054 166.078 0.743423 130.83 0.743423C83.884 0.743423 44.3151 37.7663 40.6237 85.2283C15.94 91.9706 0.0342865 112.713 0.0342865 137.777C0.0342865 169.328 23.7029 190.961 58.5651 190.961ZM163.147 251.902L179.687 223.277C181.978 219.33 180.708 214.879 176.892 212.713C173.075 210.427 168.749 211.698 166.458 215.644L149.662 244.524C147.626 248.216 148.647 252.667 152.593 254.958C153.487 255.451 154.469 255.763 155.483 255.876C156.497 255.99 157.524 255.902 158.504 255.618C159.484 255.334 160.398 254.86 161.195 254.222C161.992 253.584 162.655 252.796 163.147 251.902ZM192.667 288.289L230.2 223.147C232.491 219.33 231.34 215.004 227.654 212.713C224.093 210.552 219.511 211.698 217.096 215.514L179.818 280.402C177.652 284.348 178.672 288.8 182.489 291.091C186.18 293.126 190.501 291.981 192.667 288.289ZM61.8711 252.027L78.412 223.402C80.7029 219.461 79.5574 215.004 75.7411 212.843C71.7946 210.552 67.468 211.823 65.1771 215.769L48.5114 244.649C46.3509 248.341 47.4963 252.792 51.3126 254.958C52.1938 255.477 53.1705 255.813 54.1844 255.946C55.1983 256.079 56.2287 256.007 57.2141 255.733C58.1994 255.46 59.1196 254.991 59.9197 254.354C60.7198 253.717 61.3835 252.925 61.8711 252.027ZM91.3917 288.42L129.05 223.277C131.216 219.461 130.07 215.134 126.504 212.843C125.631 212.317 124.661 211.972 123.652 211.828C122.643 211.684 121.616 211.744 120.631 212.006C119.646 212.267 118.723 212.724 117.918 213.349C117.113 213.974 116.442 214.755 115.945 215.644L78.5423 280.532C76.3763 284.473 77.5217 288.93 81.338 291.215C85.0294 293.251 89.356 292.106 91.3917 288.42Z" fill="white"/>
</svg>
