<svg width="220" height="208" viewBox="0 0 220 208" fill="none" xmlns="http://www.w3.org/2000/svg">
<path d="M110 0.0122213C148.732 0.0122213 170.696 25.6422 173.886 56.6011H174.863C180.783 56.5915 186.647 57.7483 192.12 60.0056C197.592 62.2629 202.566 65.5763 206.758 69.7566C210.95 73.9369 214.277 78.9021 216.549 84.3686C218.821 89.8351 219.994 95.6957 220 101.616C219.992 107.533 218.818 113.392 216.546 118.856C214.274 124.32 210.948 129.283 206.758 133.462C202.568 137.641 197.596 140.954 192.125 143.211C186.655 145.468 180.793 146.626 174.876 146.618H167.762L167.726 146.667H164.499C164.247 147.387 163.906 148.072 163.484 148.708L151.262 167.041C149.901 169.035 147.809 170.411 145.44 170.871C143.07 171.332 140.615 170.839 138.607 169.5C136.598 168.161 135.199 166.084 134.713 163.72C134.226 161.356 134.692 158.895 136.009 156.872L142.841 146.618H120.474L120.45 146.667H115.598C115.345 147.383 115.005 148.064 114.583 148.696L102.361 167.029C101.712 168.069 100.86 168.969 99.8566 169.674C98.8532 170.379 97.7186 170.876 96.5198 171.135C95.321 171.393 94.0825 171.409 92.8775 171.18C91.6726 170.952 90.5258 170.484 89.5049 169.804C88.4841 169.125 87.6101 168.247 86.9346 167.223C86.2591 166.2 85.7959 165.051 85.5723 163.845C85.3488 162.639 85.3695 161.401 85.6333 160.203C85.897 159.005 86.3984 157.873 87.1078 156.872L93.9522 146.618H73.1622L73.15 146.667H66.7089C66.4531 147.387 66.1082 148.073 65.6822 148.708L53.46 167.041C52.0991 169.035 50.0069 170.411 47.6375 170.871C45.2681 171.332 42.8128 170.839 40.8045 169.5C38.7962 168.161 37.397 166.084 36.9106 163.72C36.4242 161.356 36.89 158.895 38.2067 156.872L45.0511 146.618C33.1123 146.615 21.6626 141.874 13.216 133.436C4.76939 124.999 0.01619 113.554 0 101.616C0.00480981 95.6947 1.17639 89.8328 3.44777 84.3649C5.71916 78.897 9.04582 73.9303 13.2376 69.7487C17.4294 65.5671 22.4042 62.2526 27.8776 59.9946C33.351 57.7365 39.2158 56.5793 45.1367 56.5889H46.1144C49.3167 25.4222 71.2678 0.0122213 110 0.0122213ZM50.4289 193.527C49.7454 194.528 49.2673 195.655 49.0222 196.842C48.7772 198.029 48.77 199.253 49.0012 200.443C49.2325 201.633 49.6974 202.766 50.3692 203.775C51.041 204.784 51.9062 205.65 52.9149 206.322C53.9236 206.995 55.0556 207.46 56.2455 207.692C57.4353 207.924 58.6594 207.918 59.8468 207.674C61.0342 207.429 62.1613 206.952 63.163 206.269C64.1646 205.586 65.0209 204.712 65.6822 203.696L77.9044 185.362C78.5879 184.361 79.0661 183.234 79.3111 182.047C79.5562 180.86 79.5633 179.636 79.3321 178.446C79.1009 177.256 78.6359 176.123 77.9642 175.114C77.2924 174.105 76.4271 173.239 75.4184 172.567C74.4098 171.894 73.2777 171.429 72.0879 171.197C70.898 170.965 69.674 170.971 68.4866 171.215C67.2992 171.46 66.172 171.937 65.1704 172.62C64.1687 173.303 63.3124 174.177 62.6511 175.193L50.4289 193.527ZM101.86 206.238C99.8374 204.889 98.4333 202.792 97.9566 200.409C97.4798 198.025 97.9695 195.549 99.3178 193.527L111.54 175.193C112.201 174.177 113.058 173.303 114.059 172.62C115.061 171.937 116.188 171.46 117.375 171.215C118.563 170.971 119.787 170.965 120.977 171.197C122.167 171.429 123.299 171.894 124.307 172.567C125.316 173.239 126.181 174.105 126.853 175.114C127.525 176.123 127.99 177.256 128.221 178.446C128.452 179.636 128.445 180.86 128.2 182.047C127.955 183.234 127.477 184.361 126.793 185.362L114.571 203.696C113.223 205.718 111.126 207.122 108.742 207.599C106.358 208.076 103.883 207.586 101.86 206.238Z" fill="white"/>
</svg>
