<svg width="29" height="29" viewBox="0 0 29 29" fill="none" xmlns="http://www.w3.org/2000/svg">
<path d="M26.7543 26.6854L20.8576 20.7886M20.8576 20.7886C21.8662 19.78 22.6664 18.5825 23.2122 17.2646C23.7581 15.9467 24.0391 14.5342 24.0391 13.1078C24.0391 11.6813 23.7581 10.2688 23.2122 8.95093C22.6664 7.63305 21.8662 6.43559 20.8576 5.42693C19.8489 4.41827 18.6515 3.61815 17.3336 3.07227C16.0157 2.52639 14.6032 2.24542 13.1767 2.24542C11.7503 2.24542 10.3378 2.52639 9.0199 3.07227C7.70202 3.61815 6.50456 4.41827 5.4959 5.42693C3.45881 7.46402 2.31439 10.2269 2.31439 13.1078C2.31439 15.9886 3.45881 18.7515 5.4959 20.7886C7.53299 22.8257 10.2959 23.9701 13.1767 23.9701C16.0576 23.9701 18.8205 22.8257 20.8576 20.7886Z" stroke="#AAAAAA" stroke-width="3" stroke-linecap="round" stroke-linejoin="round"/>
</svg>
