<svg width="81" height="67" viewBox="0 0 81 67" fill="none" xmlns="http://www.w3.org/2000/svg">
<path d="M20.6717 14.06C21.5373 9.80947 23.967 6.02881 27.4892 3.45153C31.0114 0.874253 35.375 -0.31587 39.7335 0.112068C44.092 0.540006 48.1345 2.55549 51.0767 5.76748C54.019 8.97948 55.6511 13.1589 55.6566 17.495C55.6566 22.1368 53.7944 26.5885 50.4795 29.8711C47.1646 33.1538 42.6684 34.9987 37.9798 35H3.88889C2.88428 35 1.92082 34.6049 1.21046 33.9016C0.500092 33.1984 0.101013 32.2446 0.101013 31.25C0.101013 30.2554 0.500092 29.3016 1.21046 28.5984C1.92082 27.8951 2.88428 27.5 3.88889 27.5H37.9798C40.6035 27.4192 43.0925 26.3308 44.92 24.4653C46.7475 22.5998 47.7702 20.1036 47.7715 17.5048C47.7728 14.9061 46.7527 12.4088 44.9271 10.5415C43.1014 8.67424 40.6135 7.58344 37.9899 7.5C33.1818 7.5 29.0404 10.86 28.101 15.53L27.803 16.985C27.5774 17.9312 26.9894 18.7537 26.1631 19.279C25.3367 19.8043 24.3366 19.9913 23.3736 19.8007C22.4106 19.61 21.5601 19.0565 21.0014 18.257C20.4427 17.4574 20.2194 16.4743 20.3788 15.515L20.6717 14.06ZM57.4748 31.77C58.7231 29.3057 60.7747 27.3304 63.2976 26.1634C65.8204 24.9965 68.6672 24.7061 71.3774 25.3393C74.0876 25.9725 76.5029 27.4922 78.2326 29.6527C79.9623 31.8132 80.9053 34.4882 80.9091 37.245V37.5C80.9091 40.8152 79.5788 43.9946 77.2109 46.3388C74.8431 48.683 71.6315 50 68.2828 50H63.6566C64.3743 51.8028 64.6361 53.752 64.4192 55.6779C64.2022 57.6038 63.5131 59.448 62.4117 61.05C61.3104 62.652 59.8302 63.9632 58.1001 64.8695C56.3699 65.7758 54.4423 66.2497 52.4849 66.25C50.5082 66.2505 48.5619 65.7691 46.8178 64.8482C45.0737 63.9274 43.5856 62.5954 42.4849 60.97L42.4091 60.85C42.115 60.4414 41.9067 59.9786 41.7966 59.4889C41.6864 58.9992 41.6766 58.4926 41.7678 57.9991C41.859 57.5056 42.0493 57.0352 42.3274 56.6158C42.6055 56.1964 42.9658 55.8365 43.3869 55.5574C43.8081 55.2784 44.2815 55.0858 44.7791 54.9911C45.2768 54.8965 45.7886 54.9016 46.2842 55.0063C46.7798 55.111 47.2492 55.313 47.6645 55.6005C48.0798 55.888 48.4326 56.2551 48.702 56.68L48.7828 56.8C49.6061 58.015 51 58.75 52.4849 58.75C53.0652 58.751 53.64 58.6388 54.1766 58.4198C54.7131 58.2009 55.2008 57.8795 55.6119 57.4739C56.023 57.0683 56.3493 56.5866 56.5723 56.0562C56.7953 55.5257 56.9106 54.957 56.9116 54.3825C56.9126 53.808 56.7993 53.2389 56.5781 52.7077C56.357 52.1765 56.0323 51.6937 55.6226 51.2867C55.213 50.8798 54.7264 50.5567 54.1906 50.3359C53.6548 50.1151 53.0803 50.001 52.5 50H3.88889C2.88428 50 1.92082 49.6049 1.21046 48.9016C0.500092 48.1984 0.101013 47.2446 0.101013 46.25C0.101013 45.2554 0.500092 44.3016 1.21046 43.5984C1.92082 42.8951 2.88428 42.5 3.88889 42.5H68.2828C69.6223 42.5 70.9069 41.9732 71.8541 41.0355C72.8012 40.0979 73.3333 38.8261 73.3333 37.5V37.25C73.3319 36.1812 72.9664 35.1441 72.2959 34.3064C71.6254 33.4687 70.6892 32.8793 69.6385 32.6335C68.5878 32.3878 67.4841 32.5001 66.5058 32.9522C65.5276 33.4043 64.7319 34.1698 64.2475 35.125L64.096 35.425C63.8761 35.8695 63.5696 36.2665 63.1941 36.5932C62.8185 36.9198 62.3814 37.1697 61.9079 37.3283C61.4343 37.4869 60.9337 37.5511 60.435 37.5173C59.9363 37.4835 59.4492 37.3523 59.0019 37.1312C58.5547 36.9101 58.156 36.6036 57.829 36.2293C57.502 35.855 57.253 35.4202 57.0965 34.9502C56.94 34.4802 56.879 33.9841 56.917 33.4907C56.9551 32.9972 57.0914 32.5161 57.3182 32.075L57.4748 31.77Z" fill="white"/>
</svg>
