<svg width="184" height="184" viewBox="0 0 184 184" fill="none" xmlns="http://www.w3.org/2000/svg">
<path d="M91.6667 0C94.0978 0 96.4294 0.965771 98.1485 2.68485C99.8676 4.40394 100.833 6.73552 100.833 9.16667V32.5508L116.481 16.9125C117.326 16.037 118.338 15.3387 119.456 14.8582C120.575 14.3778 121.778 14.1249 122.995 14.1144C124.212 14.1038 125.419 14.3357 126.545 14.7966C127.672 15.2575 128.695 15.9382 129.556 16.7989C130.417 17.6596 131.097 18.683 131.558 19.8096C132.019 20.9361 132.251 22.1432 132.241 23.3603C132.23 24.5775 131.977 25.7803 131.497 26.8987C131.016 28.0171 130.318 29.0286 129.443 29.8742L100.833 58.4742V82.5H124.85L153.459 53.9C154.299 53.004 155.311 52.286 156.434 51.7887C157.557 51.2914 158.769 51.0248 159.997 51.0049C161.225 50.9849 162.445 51.212 163.583 51.6726C164.722 52.1332 165.756 52.818 166.625 53.6862C167.494 54.5544 168.18 55.5884 168.641 56.7267C169.102 57.8651 169.33 59.0845 169.311 60.3127C169.292 61.5408 169.027 62.7526 168.53 63.876C168.033 64.9995 167.316 66.0117 166.421 66.8525L150.792 82.5H174.167C176.598 82.5 178.929 83.4658 180.648 85.1849C182.368 86.9039 183.333 89.2355 183.333 91.6667C183.333 94.0978 182.368 96.4294 180.648 98.1485C178.929 99.8676 176.598 100.833 174.167 100.833H150.783L166.421 116.481C168.091 118.21 169.015 120.525 168.994 122.929C168.973 125.332 168.009 127.631 166.309 129.331C164.61 131.03 162.31 131.994 159.907 132.015C157.504 132.036 155.188 131.112 153.459 129.443L124.859 100.833H100.833V124.85L129.433 153.459C131.063 155.195 131.954 157.496 131.917 159.877C131.88 162.257 130.918 164.53 129.235 166.214C127.552 167.898 125.28 168.861 122.9 168.9C120.52 168.938 118.217 168.049 116.481 166.421L100.833 150.792V174.167C100.833 176.598 99.8676 178.929 98.1485 180.648C96.4294 182.368 94.0978 183.333 91.6667 183.333C89.2355 183.333 86.9039 182.368 85.1849 180.648C83.4658 178.929 82.5 176.598 82.5 174.167V150.783L66.8525 166.421C65.1236 168.091 62.8081 169.015 60.4047 168.994C58.0012 168.973 55.7021 168.009 54.0025 166.309C52.3029 164.61 51.3389 162.31 51.318 159.907C51.2971 157.504 52.2211 155.188 53.8908 153.459L82.5 124.859V100.833H58.4833L29.8742 129.433C28.1387 131.063 25.8372 131.954 23.4568 131.917C21.0763 131.88 18.8036 130.918 17.1196 129.235C15.4356 127.552 14.4723 125.28 14.4337 122.9C14.395 120.52 15.284 118.217 16.9125 116.481L32.5417 100.833H9.16667C6.73552 100.833 4.40394 99.8676 2.68485 98.1485C0.965771 96.4294 0 94.0978 0 91.6667C0 89.2355 0.965771 86.9039 2.68485 85.1849C4.40394 83.4658 6.73552 82.5 9.16667 82.5H32.5508L16.9125 66.8525C16.0171 66.0117 15.2999 64.9995 14.8033 63.876C14.3068 62.7526 14.0411 61.5408 14.022 60.3127C14.0029 59.0845 14.2308 57.8651 14.6923 56.7267C15.1537 55.5884 15.8392 54.5544 16.708 53.6862C17.5769 52.818 18.6113 52.1332 19.75 51.6726C20.8886 51.212 22.1082 50.9849 23.3364 51.0049C24.5645 51.0248 25.7761 51.2914 26.8992 51.7887C28.0223 52.286 29.034 53.004 29.8742 53.9L58.4742 82.5H82.5V58.4833L53.9 29.8742C52.2703 28.1387 51.3797 25.8372 51.4166 23.4568C51.4536 21.0763 52.4152 18.8036 54.0981 17.1196C55.7809 15.4356 58.0529 14.4723 60.4334 14.4337C62.8138 14.395 65.1159 15.284 66.8525 16.9125L82.5 32.5417V9.16667C82.5 6.73552 83.4658 4.40394 85.1849 2.68485C86.9039 0.965771 89.2355 0 91.6667 0Z" fill="white"/>
</svg>
