<svg width="50" height="50" viewBox="0 0 50 50" fill="none" xmlns="http://www.w3.org/2000/svg">
<path d="M21.5908 6.25C18.5567 6.25 15.5907 7.14972 13.0679 8.83539C10.5451 10.5211 8.57887 12.917 7.41776 15.7201C6.25665 18.5233 5.95285 21.6078 6.54478 24.5837C7.13671 27.5595 8.59778 30.293 10.7432 32.4384C12.8887 34.5839 15.6222 36.0449 18.598 36.6369C21.5738 37.2288 24.6583 36.925 27.4615 35.7639C30.2647 34.6028 32.6606 32.6365 34.3463 30.1137C36.0319 27.5909 36.9316 24.6249 36.9316 21.5908C36.9314 17.5223 35.315 13.6204 32.4381 10.7435C29.5612 7.8666 25.6594 6.25026 21.5908 6.25Z" stroke="#9F9F9F" stroke-width="3" stroke-miterlimit="10"/>
<path d="M33.0361 33.0361L43.75 43.75" stroke="#9F9F9F" stroke-width="3" stroke-miterlimit="10" stroke-linecap="round"/>
</svg>
